#!OML:ASF X:\für Bonn\!DataBase\2005_08_12_Daniel\c3d\Daniel.ASF
:FULLY-SPECIFIED
:DEGREES
63
root 5.66698 18.2398 6.69433 -174.726 -44.7207 173.363
lowerback 7.00655 -4.98976 -3.20864
upperback 1.46582 -7.01311 -1.82556
thorax -2.2393 -3.51624 0.512035
lowerneck -4.72273 4.43762 -3.70927
upperneck 3.44939 6.17963 -0.997136
head 1.79134 2.99124 0.48868
rclavicle -3.02898e-014 2.46493e-014
rhumerus -70.6433 12.8604 -96.7846
rradius 81.4353
rwrist -7.54894
rhand -17.4486 22.9404
rfingers 7.12502
rthumb 8.80245 -6.85602
lclavicle -3.02898e-014 2.46493e-014
lhumerus -59.2042 -10.7231 96.9763
lradius 116.592
lwrist 11.013
lhand -10.3038 -17.3034
lfingers 7.12502
lthumb 15.6911 12.0804
rfemur -25.3999 7.9522 15.4337
rtibia 27.056
rfoot -9.16306 -16.2174
rtoes -4.86848
lfemur 12.7019 0.177832 -26.331
ltibia 55.1223
lfoot 6.46188 5.82661
ltoes -5.4809
64
root 5.39395 18.1292 6.42048 -175.435 -44.4613 173.615
lowerback 7.49822 -4.7726 -2.86419
upperback 1.57291 -6.72064 -1.81395
thorax -2.44744 -3.37171 0.354809
lowerneck -4.33135 4.41216 -3.64615
upperneck 3.1268 6.12124 -1.16848
head 1.6256 2.96666 0.405723
rclavicle 3.30728e-014 1.98785e-015
rhumerus -70.0342 12.6787 -96.4396
rradius 80.5499
rwrist -6.84893
rhand -17.8362 23.122
rfingers 7.12502
rthumb 8.42843 -6.68982
lclavicle 3.30728e-014 1.98785e-015
lhumerus -59.7601 -10.2742 97.3016
lradius 115.352
lwrist 10.4477
lhand -10.0578 -17.4368
lfingers 7.12502
lthumb 15.928 11.9283
rfemur -25.0898 6.42404 16.3011
rtibia 28.3201
rfoot -7.90739 -14.0555
rtoes -3.80504
lfemur 12.0137 0.61831 -26.0134
ltibia 58.6405
lfoot 6.22729 5.85974
ltoes -6.53896
65
root 5.12219 18.0115 6.14841 -176.246 -44.1871 173.951
lowerback 8.05131 -4.5491 -2.43364
upperback 1.71589 -6.41242 -1.80343
thorax -2.65879 -3.22143 0.146565
lowerneck -4.12806 4.38623 -3.58707
upperneck 2.93935 6.07361 -1.32547
head 1.53676 2.94424 0.336979
rclavicle -2.17669e-014 5.56597e-015
rhumerus -69.3373 12.4529 -96.1469
rradius 79.6923
rwrist -6.11764
rhand -18.2705 23.3501
rfingers 7.12502
rthumb 8.00928 -6.47819
lclavicle -2.17669e-014 5.56597e-015
lhumerus -60.182 -9.75587 97.5273
lradius 114.143
lwrist 9.93313
lhand -9.60808 -17.449
lfingers 7.12502
lthumb 16.361 11.8809
rfemur -24.7309 5.07068 17.2502
rtibia 29.9015
rfoot -7.13394 -11.7045
rtoes -2.69889
lfemur 11.2178 1.06351 -25.5916
ltibia 62.2838
lfoot 6.09874 5.68923
ltoes -8.03305
66
root 4.85504 17.8806 5.8813 -177.222 -43.925 174.502
lowerback 8.68382 -4.3349 -1.83462
upperback 1.85284 -6.09723 -1.74897
thorax -2.92819 -3.06829 -0.108628
lowerneck -3.91627 4.35609 -3.50517
upperneck 2.77911 6.01981 -1.51053
head 1.45712 2.91794 0.256454
rclavicle 5.27773e-014 2.52457e-014
rhumerus -68.6467 12.1565 -95.906
rradius 78.9178
rwrist -5.30038
rhand -18.7462 23.5252
rfingers 7.12502
rthumb 7.55015 -6.32004
lclavicle 5.27773e-014 2.52457e-014
lhumerus -60.4446 -9.20728 97.7061
lradius 112.889
lwrist 9.51052
lhand -9.10519 -17.3641
lfingers 7.12502
lthumb 16.8452 11.9252
rfemur -24.336 3.85322 18.3522
rtibia 31.7297
rfoot -6.95487 -9.07467
rtoes 0.383628
lfemur 10.3006 1.50417 -24.9269
ltibia 66.0493
lfoot 6.03796 5.20257
ltoes -9.67454
67
root 4.59283 17.7344 5.6201 -178.539 -43.6975 175.326
lowerback 9.52405 -4.13751 -1.00451
upperback 2.0528 -5.77995 -1.66312
thorax -3.25987 -2.91822 -0.45266
lowerneck -3.84948 4.31503 -3.39753
upperneck 2.70946 5.95938 -1.70184
head 1.43298 2.88591 0.175746
rclavicle 2.24254e-014 2.08724e-014
rhumerus -68.1548 11.7532 -95.7504
rradius 78.518
rwrist -4.53205
rhand -19.2781 23.5621
rfingers 7.12502
rthumb 7.03674 -6.3009
lclavicle 2.24254e-014 2.08724e-014
lhumerus -60.6508 -8.60402 97.823
lradius 111.487
lwrist 9.24328
lhand -8.6324 -17.3641
lfingers 7.12502
lthumb 17.3003 11.8859
rfemur -23.6972 2.61005 19.6337
rtibia 33.7344
rfoot -7.41541 -6.46631
rtoes 3.81772
lfemur 9.41298 1.86927 -23.9679
ltibia 69.892
lfoot 6.03182 4.47176
ltoes -10.3733
